{"title":"Davd-Nudes.15.02.27.Tatyana.Red.Rocks.XXX.1080p.x264-TBP","uid":11689868,"size":501026192,"categoryP":"porn","categoryS":"movies","magnet":"?xt=urn:btih:31f4889f26a3bca9e916cf1c63103bb7c7781ba0&amp;dn=Davd-Nudes.15.02.27.Tatyana.Red.Rocks.XXX.1080p.x264-TBP&amp;tr=udp%3A%2F%2Ftracker.openbittorrent.com%3A80&amp;tr=udp%3A%2F%2Fopen.demonii.com%3A1337&amp;tr=udp%3A%2F%2Ftracker.coppersurfer.tk%3A6969&amp;tr=udp%3A%2F%2Fexodus.desync.com%3A6969","seeders":0,"leechers":0,"uploader":"sceneline","files":36,"time":1423480841,"description":"SceneTime dot come\n\nSign up is OPEN - for time being. Come and have fun.\n\nplease seed back as long as possible.\n\nfor info read NFO file\n\n================== NFO====================\n                  THE.BEST.PORN.GIVES \n\n\nDavd-Nudes.15.02.27.Tatyana.Red.Rocks.XXX.1080p.x264-TBP \n\nWEBSITE     : www.Davd-Nudes.com \nTYPE        :  \nSIZE        : 32 x 15MB \n\nGeneral\nComplete name                            : tbp.dan0227redrocks.mp4\nFormat                                   : MPEG-4\nFormat profile                           : Base Media\nCodec ID                                 : isom\nFile size                                : 449 MiB\nDuration                                 : 6mn 20s\nOverall bit rate mode                    : Variable\nOverall bit rate                         : 9 901 Kbps\nWriting application                      : Lavf56.4.101\n\nVideo\nID                                       : 1\nFormat                                   : AVC\nFormat/Info                              : Advanced Video Codec\nFormat profile                           : &lt;a class=&quot;__cf_email__&quot; href=&quot;/cdn-cgi/l/email-protection&quot; data-cfemail=&quot;c489a5adaa8488f0eaf5&quot;&gt;[email&amp;#160;protected]&lt;/a&gt;&lt;script cf-hash='f9e31' type=&quot;text/javascript&quot;&gt;\n/* &lt;![CDATA[ */!function(){try{var t=&quot;currentScript&quot;in document?document.currentScript:function(){for(var t=document.getElementsByTagName(&quot;script&quot;),e=t.length;e--;)if(t[e].getAttribute(&quot;cf-hash&quot;))return t[e]}();if(t&amp;&amp;t.previousSibling){var e,r,n,i,c=t.previousSibling,a=c.getAttribute(&quot;data-cfemail&quot;);if(a){for(e=&quot;&quot;,r=parseInt(a.substr(0,2),16),n=2;a.length-n;n+=2)i=parseInt(a.substr(n,2),16)^r,e+=String.fromCharCode(i);e=document.createTextNode(e),c.parentNode.replaceChild(e,c)}}}catch(u){}}();/* ]]&gt; */&lt;/script&gt;\nFormat settings, CABAC                   : Yes\nFormat settings, ReFrames                : 3 frames\nCodec ID                                 : avc1\nCodec ID/Info                            : Advanced Video Coding\nDuration                                 : 6mn 20s\nBit rate mode                            : Variable\nBit rate                                 : 9 705 Kbps\nMaximum bit rate                         : 10 000 Kbps\nWidth                                    : 1 920 pixels\nHeight                                   : 1 080 pixels\nDisplay aspect ratio                     : 16:9\nFrame rate mode                          : Constant\nFrame rate                               : 29.970 fps\nStandard                                 : NTSC\nColor space                              : YUV\nChroma subsampling                       : 4:2:0\nBit depth                                : 8 bits\nScan type                                : Progressive\nBits/(Pixel*Frame)                       : 0.156\nStream size                              : 440 MiB (98%)\n\nAudio\nID                                       : 2\nFormat                                   : AAC\nFormat/Info                              : Advanced Audio Codec\nFormat profile                           : LC\nCodec ID                                 : 40\nDuration                                 : 6mn 20s\nBit rate mode                            : Constant\nBit rate                                 : 192 Kbps\nChannel(s)                               : 2 channels\nChannel positions                        : Front: L R\nSampling rate                            : 48.0 KHz\nCompression mode                         : Lossy\nStream size                              : 8.59 MiB (2%)\n\n\nREVIEW-URL  :  \n\n  Greetz to our good friends in GUSH \n   And the others which make this fun","torrent":{"xt":"urn:btih:31f4889f26a3bca9e916cf1c63103bb7c7781ba0","amp;dn":"Davd-Nudes.15.02.27.Tatyana.Red.Rocks.XXX.1080p.x264-TBP","amp;tr":["udp%3A%2F%2Ftracker.openbittorrent.com%3A80","udp%3A%2F%2Fopen.demonii.com%3A1337","udp%3A%2F%2Ftracker.coppersurfer.tk%3A6969","udp%3A%2F%2Fexodus.desync.com%3A6969"],"infoHash":"31f4889f26a3bca9e916cf1c63103bb7c7781ba0","infoHashBuffer":{"type":"Buffer","data":[49,244,136,159,38,163,188,169,233,22,207,28,99,16,59,183,199,120,27,160]},"announce":[],"urlList":[]}}